<svg width="27.168457" height="28.000000" viewBox="0 0 27.1685 28" fill="none" xmlns="http://www.w3.org/2000/svg" xmlns:xlink="http://www.w3.org/1999/xlink">
	<desc>
			Created with Pixso.
	</desc>
	<defs>
		<clipPath id="clip406_543">
			<rect width="27.168318" height="28.000000" fill="white" fill-opacity="0"/>
		</clipPath>
	</defs>
	<rect width="27.168318" height="28.000000" fill="#FFFFFF" fill-opacity="0"/>
	<g clip-path="url(#clip406_543)">
		<path d="M9.08691 21.7328C9.08691 21.8422 8.96094 21.9297 8.80225 21.9297C8.62158 21.946 8.49561 21.8586 8.49561 21.7328C8.49561 21.6234 8.62158 21.5359 8.78027 21.5359C8.94482 21.5195 9.08691 21.6071 9.08691 21.7328ZM7.38379 21.4867C7.34521 21.5961 7.45508 21.7219 7.61914 21.7546C7.76172 21.8093 7.92578 21.7546 7.95898 21.6453C7.9917 21.5359 7.8877 21.4102 7.72314 21.361C7.58105 21.3226 7.42188 21.3773 7.38379 21.4867ZM9.80469 21.3938C9.646 21.432 9.53613 21.5359 9.55273 21.6617C9.56934 21.7711 9.71143 21.8422 9.87598 21.804C10.0347 21.7656 10.1445 21.6617 10.1279 21.5524C10.1113 21.4485 9.96338 21.3773 9.80469 21.3938ZM13.4087 0.4375C5.81152 0.4375 0 6.19604 0 13.7812C0 19.8461 3.82324 25.0359 9.28418 26.8625C9.98535 26.9883 10.2319 26.5563 10.2319 26.2008C10.2319 25.8617 10.2153 23.9915 10.2153 22.843C10.2153 22.843 6.38135 23.6633 5.57617 21.2133C5.57617 21.2133 4.95166 19.6218 4.05322 19.2117C4.05322 19.2117 2.79883 18.3531 4.14111 18.3695C4.14111 18.3695 5.50488 18.4789 6.25537 19.7805C7.45508 21.8914 9.46533 21.2844 10.2485 20.9235C10.3745 20.0485 10.7305 19.4414 11.125 19.0804C8.06299 18.7415 4.97363 18.2985 4.97363 13.0375C4.97363 11.5336 5.38965 10.7789 6.26611 9.81641C6.12402 9.46094 5.6582 7.99536 6.40869 6.10315C7.55322 5.74768 10.188 7.57971 10.188 7.57971C11.2837 7.27344 12.4614 7.11487 13.6279 7.11487C14.7949 7.11487 15.9722 7.27344 17.0679 7.57971C17.0679 7.57971 19.7026 5.74219 20.8472 6.10315C21.5977 8.00073 21.1323 9.46094 20.9897 9.81641C21.8662 10.7844 22.4028 11.5391 22.4028 13.0375C22.4028 18.3148 19.1768 18.736 16.1147 19.0804C16.6187 19.5125 17.0459 20.3328 17.0459 21.6179C17.0459 23.4609 17.0293 25.7415 17.0293 26.1898C17.0293 26.5453 17.2812 26.9773 17.9771 26.8516C23.4546 25.0359 27.1685 19.8461 27.1685 13.7812C27.1685 6.19604 21.0063 0.4375 13.4087 0.4375ZM5.32422 19.2992C5.25293 19.3539 5.26953 19.4797 5.3623 19.5836C5.4502 19.6711 5.57617 19.7094 5.64746 19.6383C5.71826 19.5836 5.70215 19.4578 5.60889 19.3539C5.52148 19.2664 5.39551 19.2281 5.32422 19.2992ZM4.73242 18.8562C4.69434 18.9274 4.74902 19.0149 4.8584 19.0696C4.94629 19.1243 5.05566 19.1078 5.09424 19.0312C5.13232 18.9602 5.07764 18.8727 4.96826 18.818C4.8584 18.7852 4.771 18.8015 4.73242 18.8562ZM6.50732 20.8031C6.41943 20.8743 6.45264 21.0383 6.57861 21.1422C6.70459 21.2679 6.86328 21.2844 6.93457 21.1969C7.00586 21.1257 6.97266 20.9617 6.86328 20.8578C6.74268 20.7321 6.57861 20.7156 6.50732 20.8031ZM5.88281 19.9993C5.79541 20.054 5.79541 20.196 5.88281 20.3219C5.97021 20.4476 6.11816 20.5023 6.18945 20.4476C6.27734 20.3766 6.27734 20.2344 6.18945 20.1086C6.11279 19.9828 5.97021 19.9281 5.88281 19.9993Z" fill="#FFFFFF" fill-opacity="1.000000" fill-rule="nonzero"/>
	</g>
</svg>
