<svg width="24.409180" height="25.653809" viewBox="0 0 24.4092 25.6538" fill="none" xmlns="http://www.w3.org/2000/svg" xmlns:xlink="http://www.w3.org/1999/xlink">
	<desc>
			Created with Pixso.
	</desc>
	<defs/>
	<path id="Vector" d="M12.2075 6.24963C8.74414 6.24963 5.95068 9.18616 5.95068 12.8269C5.95068 16.4677 8.74414 19.4042 12.2075 19.4042C15.6709 19.4042 18.4644 16.4677 18.4644 12.8269C18.4644 9.18616 15.6709 6.24963 12.2075 6.24963ZM12.2075 17.103C9.96924 17.103 8.13965 15.1853 8.13965 12.8269C8.13965 10.4685 9.96387 8.55078 12.2075 8.55078C14.4512 8.55078 16.2754 10.4685 16.2754 12.8269C16.2754 15.1853 14.4458 17.103 12.2075 17.103ZM20.1797 5.98059C20.1797 6.8335 19.5264 7.51465 18.7202 7.51465C17.9092 7.51465 17.2607 6.82776 17.2607 5.98059C17.2607 5.1333 17.9146 4.44641 18.7202 4.44641C19.5264 4.44641 20.1797 5.1333 20.1797 5.98059ZM24.3237 7.5376C24.2314 5.48254 23.7847 3.66223 22.3525 2.16235C20.9258 0.662598 19.1943 0.193237 17.2393 0.09021C15.2241 -0.0300293 9.18506 -0.0300293 7.17041 0.09021C5.2207 0.1875 3.48926 0.65686 2.05713 2.15662C0.625 3.65649 0.183594 5.47681 0.0859375 7.53186C-0.0288086 9.6499 -0.0288086 15.9982 0.0859375 18.1162C0.178223 20.1713 0.625 21.9917 2.05713 23.4915C3.48926 24.9912 5.21533 25.4606 7.17041 25.5637C9.18506 25.6838 15.2241 25.6838 17.2393 25.5637C19.1943 25.4663 20.9258 24.9969 22.3525 23.4915C23.7793 21.9917 24.2256 20.1713 24.3237 18.1162C24.438 15.9982 24.438 9.65564 24.3237 7.5376ZM21.7207 20.3888C21.2959 21.5107 20.4736 22.3751 19.4009 22.8274C17.7944 23.4972 13.9829 23.3427 12.2075 23.3427C10.4321 23.3427 6.61475 23.4915 5.01416 22.8274C3.94678 22.3809 3.12451 21.5165 2.69434 20.3888C2.05713 18.7001 2.2041 14.6931 2.2041 12.8269C2.2041 10.9608 2.0625 6.948 2.69434 5.26501C3.11914 4.14307 3.94141 3.27869 5.01416 2.82642C6.62061 2.15662 10.4321 2.31128 12.2075 2.31128C13.9829 2.31128 17.8003 2.16235 19.4009 2.82642C20.4683 3.27295 21.2905 4.13733 21.7207 5.26501C22.3579 6.95374 22.2109 10.9608 22.2109 12.8269C22.2109 14.6931 22.3579 18.7058 21.7207 20.3888Z" fill="#FFFFFF" fill-opacity="1.000000" fill-rule="nonzero"/>
</svg>
