<svg width="24.673340" height="28.000000" viewBox="0 0 24.6733 28" fill="none" xmlns="http://www.w3.org/2000/svg" xmlns:xlink="http://www.w3.org/1999/xlink">
	<desc>
			Created with Pixso.
	</desc>
	<defs>
		<clipPath id="clip406_545">
			<rect width="24.673267" height="28.000000" fill="white" fill-opacity="0"/>
		</clipPath>
	</defs>
	<rect width="24.673267" height="28.000000" fill="#FFFFFF" fill-opacity="0"/>
	<g clip-path="url(#clip406_545)">
		<path d="M5.52295 24.5005L0.407715 24.5005L0.407715 8.14343L5.52295 8.14343L5.52295 24.5005ZM2.9624 5.91211C1.32666 5.91211 0 4.56689 0 2.94263C0 2.16248 0.312012 1.41418 0.867676 0.862549C1.42334 0.310913 2.17676 0.000976562 2.9624 0.000976562C3.74805 0.000976562 4.50146 0.310913 5.05713 0.862549C5.61279 1.41418 5.9248 2.16248 5.9248 2.94263C5.9248 4.56689 4.59766 5.91211 2.9624 5.91211ZM24.668 24.5005L19.5635 24.5005L19.5635 16.538C19.5635 14.6403 19.5249 12.2067 16.9038 12.2067C14.2446 12.2067 13.8369 14.2684 13.8369 16.4012L13.8369 24.5005L8.72705 24.5005L8.72705 8.14343L13.6333 8.14343L13.6333 10.3746L13.7046 10.3746C14.3877 9.08948 16.0557 7.73328 18.5444 7.73328C23.7217 7.73328 24.6733 11.1184 24.6733 15.5153L24.6733 24.5005L24.668 24.5005Z" fill="#FFFFFF" fill-opacity="1.000000" fill-rule="nonzero"/>
	</g>
</svg>
