<svg width="31.461914" height="28.000000" viewBox="0 0 31.4619 28" fill="none" xmlns="http://www.w3.org/2000/svg" xmlns:xlink="http://www.w3.org/1999/xlink">
	<desc>
			Created with Pixso.
	</desc>
	<defs>
		<clipPath id="clip406_537">
			<rect width="31.461819" height="28.000000" fill="white" fill-opacity="0"/>
		</clipPath>
	</defs>
	<rect width="31.461819" height="28.000000" fill="#FFFFFF" fill-opacity="0"/>
	<g clip-path="url(#clip406_537)">
		<path d="M29.7686 6.43677C29.9707 5.75317 29.7686 5.25 28.7964 5.25L25.5791 5.25C24.7598 5.25 24.3833 5.68201 24.1812 6.16333C24.1812 6.16333 22.5425 10.1609 20.2266 12.7532C19.478 13.5023 19.1338 13.7429 18.7241 13.7429C18.522 13.7429 18.2109 13.5023 18.2109 12.8187L18.2109 6.43677C18.2109 5.61646 17.9814 5.25 17.3042 5.25L12.2461 5.25C11.7329 5.25 11.4268 5.63281 11.4268 5.98828C11.4268 6.76489 12.585 6.94531 12.7051 9.13281L12.7051 13.8796C12.7051 14.9187 12.5195 15.1101 12.1099 15.1101C11.0171 15.1101 8.36279 11.0961 6.78955 6.50232C6.47266 5.61096 6.16162 5.25 5.33643 5.25L2.11963 5.25C1.20166 5.25 1.01611 5.68201 1.01611 6.16333C1.01611 7.01636 2.1084 11.2546 6.10156 16.8547C8.76123 20.6774 12.5083 22.75 15.917 22.75C17.9648 22.75 18.2163 22.2906 18.2163 21.4977C18.2163 17.8445 18.0308 17.5 19.0576 17.5C19.5327 17.5 20.3521 17.7406 22.2637 19.5836C24.4487 21.7711 24.8091 22.75 26.0327 22.75L29.25 22.75C30.1675 22.75 30.6318 22.2906 30.3643 21.3828C29.7524 19.4742 25.6177 15.5476 25.4316 15.2852C24.9565 14.6726 25.0933 14.3992 25.4316 13.8523C25.4375 13.8469 29.3647 8.3125 29.7686 6.43677Z" fill="#FFFFFF" fill-opacity="1.000000" fill-rule="nonzero"/>
	</g>
</svg>
